<svg width="522" height="392" viewBox="0 0 522 392" fill="none" xmlns="http://www.w3.org/2000/svg">
<path d="M280.48 208.639C279.632 208.144 270.722 203.689 269.787 203.288C266.247 201.211 261.912 199.969 256.809 199.969C247.27 199.969 241.493 204.27 238.333 207.884C234.459 212.306 232.242 218.377 232.242 224.542C232.242 230.32 234.466 236.151 238.347 240.533C240.19 242.617 242.902 244.928 246.663 246.511C247.484 246.992 256.401 251.454 257.356 251.861C260.569 253.745 264.777 255.154 270.174 255.154C279.626 255.154 285.43 250.839 288.643 247.219C292.523 242.837 294.754 237.006 294.754 231.228C294.754 221.957 289.885 212.606 280.487 208.639H280.48Z" fill="#191919"/>
<path d="M312.388 14.7214C311.506 14.2606 310.618 13.813 309.716 13.3856C308.835 12.9247 307.946 12.4772 307.044 12.0497C306.163 11.5888 305.274 11.1413 304.373 10.7138C303.491 10.2529 302.603 9.80539 301.701 9.3779C290.339 3.41986 276.86 0 262.279 0C244.064 0 227.119 5.14315 214.568 14.481C202.451 23.4982 195.505 35.6815 195.505 47.9048C195.505 55.4926 197.909 61.985 202.458 66.674C204.576 68.8581 207.094 70.5547 209.866 71.7169C210.727 72.2179 211.616 72.6654 212.537 73.0528C213.399 73.5538 214.287 74.0013 215.209 74.3887C216.071 74.8896 216.959 75.3438 217.881 75.7246C218.743 76.2255 219.631 76.673 220.553 77.0605C224.039 79.1044 228.08 80.1931 232.355 80.1931C246.743 80.1931 257.597 69.9469 257.597 56.3609C257.597 48.0718 254.284 41.2721 247.945 36.4028C253.89 32.9629 261.998 29.8971 271.998 29.8971C276.653 29.8971 280.908 30.4047 284.749 31.3866C291.648 37.2912 295.349 46.255 295.349 57.817C295.349 82.0166 282.304 96.7247 268.491 112.294C255.352 127.109 241.76 142.425 241.76 165.85V185.294L255.132 191.98H282.411V187.972C282.411 170.225 282.965 165.957 289.291 156.953C295.476 148.156 303.892 140.809 312.795 133.041C331.084 117.077 350 100.572 350 70.1673C350 46.0613 335.018 25.4887 312.395 14.7214H312.388Z" fill="#191919"/>
<path d="M256.809 203.976C242.989 203.976 236.243 214.583 236.243 224.542C236.243 233.539 242.989 244.467 256.809 244.467C270.628 244.467 277.375 233.539 277.375 224.542C277.375 214.583 270.628 203.976 256.809 203.976ZM262.273 4.00781C225.115 4.00781 199.513 25.8829 199.513 47.905C199.513 61.7113 208.55 69.4995 218.99 69.4995C231.38 69.4995 240.224 61.0033 240.224 49.675C240.224 40.8248 235.976 34.0986 227.125 29.8505C234.206 24.5403 244.826 19.2035 258.632 19.2035C285.891 19.2035 299.357 35.1606 299.357 57.8172C299.357 107.913 245.768 120.844 245.768 165.85V181.286H265.031C265.031 163.579 265.519 158.095 272.646 147.963C292.063 120.343 332.62 106.33 332.62 63.4814C332.62 29.4096 300.9 4.00781 262.273 4.00781Z" fill="#FAFAF7"/>
<path d="M173.828 386.896C161.905 386.896 152.575 376.412 152.575 355.435C152.575 334.459 160.511 324.287 172.256 324.287C177.712 324.287 180.726 326.799 182.176 331.115C184.076 336.763 183.674 344.3 191.385 344.3C195.391 344.3 198.058 340.966 198.058 336.65C198.058 329.406 187.024 320.311 171.629 320.311C152.977 320.311 137.62 332.268 137.62 357.135C137.62 382.003 157.488 391.344 171.788 391.344C186.088 391.344 195.288 384.827 199.977 374.183L195.878 372.908C192.2 380.643 184.067 386.896 173.838 386.896H173.828ZM115.636 326.346C109.759 322.322 103.095 320.311 95.6365 320.311C85.0331 320.311 76.3202 323.966 69.4977 331.276C63.6204 337.736 60.6818 345.679 60.6818 355.114C60.6818 368.044 65.2956 377.895 74.542 384.667C80.6252 389.115 87.457 391.344 95.0095 391.344C105.398 391.344 113.961 387.642 120.671 380.218C126.754 373.541 129.805 365.333 129.805 355.587C129.805 342.666 125.079 332.919 115.636 326.346ZM95.4774 387.368C82.3565 387.16 75.7399 376.62 75.637 355.747C75.7399 334.874 82.2536 324.391 95.1592 324.287C108.074 324.504 114.579 334.77 114.681 355.114C114.579 376.516 108.168 387.264 95.4681 387.368H95.4774ZM429.124 320.301C411.062 320.301 394.179 332.258 394.179 357.135C394.179 382.013 415.17 391.335 429.283 391.335C446.157 391.335 453.766 382.778 457.472 374.174L453.373 372.899C449.695 380.634 442.545 386.886 431.333 386.886C420.121 386.886 409.668 374.721 409.237 357.787H459.596V354.595C459.596 337.207 449.04 320.301 429.124 320.301ZM444.566 353.358L409.153 353.376V352.338C409.153 334.364 417.651 324.315 428.619 324.315C439.587 324.315 444.566 335.46 444.566 352.338V353.358ZM32.7742 350.439C24.1267 346.85 10.2478 342.628 10.2478 334.308C10.2478 326.894 19.0917 324.287 27.4397 324.287C36.2182 324.287 46.5876 329.387 46.5876 338.794V339.228H50.4808V319.366H46.5314L45.9138 324.769C40.9724 321.803 33.4854 320.32 26.3354 320.32C11.7452 320.32 0 326.289 0 338.426C0 350.562 10.0232 355.738 20.2429 360.252C30.4626 364.767 44.4632 368.667 44.4632 375.883C44.4632 383.769 36.9388 387.368 27.8047 387.368C14.1129 387.368 4.25821 380.001 4.25821 367.827V366.552H0V391.335H3.94937L4.56704 385.961C10.2758 389.446 19.3819 391.335 27.1215 391.335C39.0632 391.335 54.8794 387.368 54.8794 372.105C54.8794 357.778 41.4309 354.019 32.7835 350.43L32.7742 350.439ZM331.607 386.263C327.91 386.263 325.102 383.061 325.102 376.185V344.631C325.074 328.32 313.61 320.32 297.148 320.32C281.744 320.32 269.774 329 269.774 337.009C269.774 341.854 272.993 344.31 276.456 344.31C284.158 344.31 283.756 336.773 285.655 331.125C287.115 326.799 291.055 324.287 296.512 324.287C305.178 324.287 311.673 329.897 311.56 340.815V348.937C285.422 349.041 267.79 358.524 267.79 373.201V374.976C267.79 385.271 275.52 391.344 287.883 391.344C299.6 391.344 308.304 384.279 311.719 376.884C313.076 386.423 319.983 391.344 327.545 391.344C335.809 391.344 339.767 387.094 342.285 384.383L340.254 381.796C338.392 383.836 334.863 386.263 331.607 386.263ZM311.56 367.591C309.773 374.901 303.306 384.827 294.237 384.827C287.621 384.827 281.809 381.097 281.809 372.748V370.509C281.809 363.416 286.629 356.88 294.396 354.973C298.486 354.019 304.204 353.49 311.56 353.386V367.591ZM378.934 386.263C372.747 386.263 366.281 382.258 366.281 370.056V325.515H390.061V321.538H366.281V299.854H362.341C362.341 311.829 352.72 321.538 340.853 321.538H336.249V325.515H352.729C352.729 332.523 352.701 367.44 352.729 367.383C352.729 382.787 361.742 391.354 373.346 391.354C384.221 391.354 389.603 386.159 392.12 383.448L390.089 380.86C388.227 382.901 384.324 386.272 378.924 386.272L378.934 386.263ZM251.833 321.113C237.561 321.113 229.737 332.372 227.603 337.424L227.098 322.077H202.26V326.988H214.38V384.846H202.26V389.767H245.067V384.846H227.922V354.34C227.922 340.57 239.19 328.112 243.485 328.112C248.38 328.112 247.397 337.642 255.296 337.642C258.759 337.642 262.38 334.497 262.38 330.331C262.38 326.166 259.03 321.123 251.833 321.123V321.113ZM499.913 350.439C491.266 346.85 477.387 342.628 477.387 334.308C477.387 326.894 486.231 324.287 494.579 324.287C503.357 324.287 513.727 329.387 513.727 338.794V339.228H517.62V319.366H513.671L513.053 324.769C508.112 321.803 500.625 320.32 493.475 320.32C478.875 320.32 467.13 326.289 467.13 338.426C467.13 350.562 477.153 355.738 487.373 360.252C497.593 364.767 511.593 368.667 511.593 375.883C511.593 383.769 504.069 387.368 494.935 387.368C481.243 387.368 471.388 380.001 471.388 367.827V366.552H467.121V391.335H471.07L471.688 385.961C477.396 389.446 486.502 391.335 494.242 391.335C506.184 391.335 522 387.368 522 372.105C522 357.778 508.552 354.019 499.904 350.43L499.913 350.439Z" fill="#191919"/>
</svg>
