<svg width="714" height="160" viewBox="0 0 714 160" fill="none" xmlns="http://www.w3.org/2000/svg">
<path d="M365.452 111.042C353.529 111.042 344.199 100.559 344.199 79.5819C344.199 58.6053 352.135 48.4334 363.88 48.4334C369.336 48.4334 372.35 50.9457 373.8 55.2619C375.7 60.9098 375.298 68.4466 383.009 68.4466C387.015 68.4466 389.682 65.1127 389.682 60.7964C389.682 53.5524 378.648 44.4572 363.253 44.4572C344.601 44.4572 329.244 56.4141 329.244 81.2819C329.244 106.15 349.112 115.491 363.412 115.491C377.712 115.491 386.912 108.974 391.601 98.3296L387.502 97.0546C383.824 104.79 375.691 111.042 365.462 111.042H365.452ZM307.26 50.4923C301.383 46.4689 294.719 44.4572 287.261 44.4572C276.657 44.4572 267.944 48.1123 261.122 55.4224C255.244 61.8826 252.306 69.8256 252.306 79.2608C252.306 92.1905 256.92 102.041 266.166 108.813C272.249 113.262 279.081 115.491 286.633 115.491C297.022 115.491 305.585 111.788 312.295 104.365C318.378 97.6873 321.429 89.4799 321.429 79.733C321.429 66.8127 316.703 57.0658 307.26 50.4923ZM287.101 111.514C273.981 111.307 267.364 100.766 267.261 79.8936C267.364 59.0208 273.878 48.5373 286.783 48.4334C299.698 48.6506 306.203 58.917 306.305 79.2608C306.203 100.662 299.792 111.41 287.092 111.514H287.101ZM620.748 44.4477C602.686 44.4477 585.803 56.4047 585.803 81.2819C585.803 106.159 606.795 115.481 620.907 115.481C637.781 115.481 645.39 106.924 649.096 98.3201L644.997 97.0451C641.319 104.78 634.169 111.033 622.957 111.033C611.745 111.033 601.292 98.8679 600.861 81.9336H651.22V78.7413C651.22 61.3537 640.664 44.4477 620.748 44.4477ZM636.19 77.5041L600.777 77.523V76.4841C600.777 58.5108 609.275 48.4617 620.243 48.4617C631.211 48.4617 636.19 59.6064 636.19 76.4841V77.5041ZM224.398 74.5857C215.751 70.9967 201.872 66.7749 201.872 58.4542C201.872 51.0401 210.716 48.4334 219.064 48.4334C227.842 48.4334 238.212 53.5335 238.212 62.9404V63.3748H242.105V43.5127H238.155L237.538 48.915C232.596 45.9494 225.109 44.4666 217.959 44.4666C203.369 44.4666 191.624 50.4356 191.624 62.572C191.624 74.7085 201.647 79.8841 211.867 84.3987C222.087 88.9132 236.087 92.8139 236.087 100.03C236.087 107.916 228.563 111.514 219.429 111.514C205.737 111.514 195.882 104.148 195.882 91.9733V90.6983H191.624V115.481H195.573L196.191 110.107C201.9 113.592 211.006 115.481 218.746 115.481C230.687 115.481 246.503 111.514 246.503 96.2518C246.503 81.9242 233.055 78.1652 224.408 74.5762L224.398 74.5857ZM523.231 110.409C519.534 110.409 516.726 107.208 516.726 100.332V68.7772C516.698 52.4662 505.234 44.4666 488.772 44.4666C473.368 44.4666 461.398 53.1463 461.398 61.1553C461.398 66.0005 464.617 68.4561 468.08 68.4561C475.782 68.4561 475.38 60.9192 477.279 55.2713C478.739 50.9457 482.679 48.4334 488.136 48.4334C496.802 48.4334 503.297 54.0435 503.184 64.9615V73.084C477.046 73.1879 459.414 82.6703 459.414 97.3473V99.1229C459.414 109.418 467.144 115.491 479.507 115.491C491.224 115.491 499.928 108.426 503.343 101.031C504.7 110.57 511.607 115.491 519.169 115.491C527.433 115.491 531.391 111.24 533.909 108.53L531.878 105.942C530.016 107.982 526.488 110.409 523.231 110.409ZM503.184 91.7372C501.397 99.0474 494.93 108.974 485.861 108.974C479.245 108.974 473.433 105.243 473.433 96.894V94.6556C473.433 87.5627 478.253 81.0269 486.021 79.1191C490.11 78.1652 495.828 77.6363 503.184 77.5324V91.7372ZM570.558 110.409C564.372 110.409 557.905 106.405 557.905 94.2023V49.6612H581.685V45.685H557.905V24H553.965C553.965 35.9758 544.344 45.685 532.477 45.685H527.873V49.6612H544.353C544.353 56.6691 544.325 91.5861 544.353 91.5294C544.353 106.934 553.366 115.5 564.97 115.5C575.845 115.5 581.227 110.305 583.744 107.595L581.713 105.007C579.851 107.047 575.948 110.419 570.548 110.419L570.558 110.409ZM443.457 45.26C429.185 45.26 421.361 56.518 419.228 61.5709L418.722 46.2233H393.884V51.1345H406.004V108.993H393.884V113.913H436.691V108.993H419.546V78.4863C419.546 64.716 430.814 52.2585 435.109 52.2585C440.004 52.2585 439.021 61.7881 446.92 61.7881C450.383 61.7881 454.004 58.6431 454.004 54.478C454.004 50.3129 450.654 45.2694 443.457 45.2694V45.26ZM691.537 74.5857C682.89 70.9967 669.011 66.7749 669.011 58.4542C669.011 51.0401 677.855 48.4334 686.203 48.4334C694.981 48.4334 705.351 53.5335 705.351 62.9404V63.3748H709.244V43.5127H705.295L704.677 48.915C699.736 45.9494 692.249 44.4666 685.099 44.4666C670.499 44.4666 658.754 50.4356 658.754 62.572C658.754 74.7085 668.777 79.8841 678.997 84.3987C689.217 88.9132 703.217 92.8139 703.217 100.03C703.217 107.916 695.693 111.514 686.559 111.514C672.867 111.514 663.012 104.148 663.012 91.9733V90.6983H658.745V115.481H662.694L663.312 110.107C669.02 113.592 678.126 115.481 685.866 115.481C697.808 115.481 713.624 111.514 713.624 96.2518C713.624 81.9242 700.176 78.1652 691.528 74.5762L691.537 74.5857Z" fill="#191919"/>
<path d="M83.9161 117.549C83.5277 117.322 79.447 115.282 79.0188 115.098C77.3975 114.147 75.4123 113.578 73.0752 113.578C68.7071 113.578 66.0611 115.548 64.6142 117.203C62.84 119.228 61.8245 122.009 61.8245 124.832C61.8245 127.478 62.8431 130.148 64.6203 132.155C65.4646 133.109 66.7065 134.168 68.4287 134.893C68.805 135.113 72.8887 137.156 73.3261 137.343C74.7974 138.206 76.7246 138.851 79.1962 138.851C83.5246 138.851 86.1828 136.875 87.6542 135.217C89.4314 133.21 90.4531 130.54 90.4531 127.894C90.4531 123.648 88.2231 119.366 83.9192 117.549H83.9161Z" fill="#191919"/>
<path d="M98.5287 28.7419C98.1249 28.5308 97.718 28.3259 97.3051 28.1301C96.9013 27.9191 96.4945 27.7141 96.0815 27.5183C95.6777 27.3073 95.2709 27.1023 94.8579 26.9065C94.4542 26.6955 94.0473 26.4905 93.6344 26.2948C88.4311 23.5662 82.2582 22 75.5805 22C67.2388 22 59.4782 24.3554 53.7305 28.6318C48.1815 32.7614 45.0002 38.3409 45.0002 43.9387C45.0002 47.4137 46.1015 50.387 48.1846 52.5344C49.1543 53.5346 50.3075 54.3116 51.577 54.8439C51.9716 55.0733 52.3784 55.2782 52.8005 55.4556C53.1951 55.6851 53.602 55.89 54.0241 56.0674C54.4187 56.2969 54.8256 56.5049 55.2477 56.6792C55.6423 56.9086 56.0491 57.1136 56.4713 57.291C58.068 58.227 59.9187 58.7257 61.8764 58.7257C68.4654 58.7257 73.4362 54.0332 73.4362 47.8113C73.4362 44.0152 71.9189 40.9012 69.016 38.6712C71.7385 37.0959 75.452 35.6918 80.0312 35.6918C82.1633 35.6918 84.1119 35.9243 85.8708 36.374C89.0307 39.0781 90.7253 43.1832 90.7253 48.4782C90.7253 59.5607 84.7512 66.2965 78.4253 73.4269C72.4084 80.2117 66.1834 87.2258 66.1834 97.9535V106.858L72.3074 109.92H84.8001V108.085C84.8001 99.9571 85.054 98.0025 87.9508 93.879C90.7834 89.8504 94.6377 86.4855 98.7153 82.928C107.091 75.6171 115.754 68.0585 115.754 54.1342C115.754 43.0945 108.892 33.6729 98.5317 28.7419H98.5287Z" fill="#191919"/>
<path d="M73.0753 115.414C66.7463 115.414 63.6568 120.271 63.6568 124.832C63.6568 128.952 66.7463 133.957 73.0753 133.957C79.4042 133.957 82.4938 128.952 82.4938 124.832C82.4938 120.271 79.4042 115.414 73.0753 115.414ZM75.5775 23.835C58.5606 23.835 46.8357 33.853 46.8357 43.9383C46.8357 50.2612 50.9744 53.8279 55.7556 53.8279C61.4299 53.8279 65.4799 49.9369 65.4799 44.7489C65.4799 40.6958 63.5345 37.6155 59.4814 35.67C62.7238 33.2381 67.5876 30.7941 73.9104 30.7941C86.3939 30.7941 92.5608 38.1019 92.5608 48.4778C92.5608 71.4199 68.0189 77.342 68.0189 97.9531V105.022H76.8408C76.8408 96.9131 77.0641 94.4017 80.328 89.7613C89.2204 77.1125 107.794 70.6949 107.794 51.0718C107.794 35.4681 93.2674 23.835 75.5775 23.835Z" fill="#FAFAF7"/>
<rect x="1" y="1" width="158" height="158" rx="39" stroke="black" stroke-width="2"/>
</svg>
